<?xml version="1.0" encoding="utf-8"?>
<!-- Generator: Adobe Illustrator 19.0.0, SVG Export Plug-In . SVG Version: 6.00 Build 0)  -->
<svg version="1.1" id="Layer_1" xmlns="http://www.w3.org/2000/svg" xmlns:xlink="http://www.w3.org/1999/xlink" x="0px" y="0px"
	 viewBox="-49 205 512 384" style="enable-background:new -49 205 512 384;" xml:space="preserve">
<style type="text/css">
	.st0{fill:#FFFFFF;}
</style>
<g>
	<g>
		<g>
			<g>
				<path class="st0" d="M459.9,357.5L353.2,250.8c-2-2-4.7-3.1-7.5-3.1h-96v-32c0-5.9-4.8-10.7-10.7-10.7H-6.3
					c-23.5,0-42.7,19.1-42.7,42.7v266.7c0,17.6,14.4,32,32,32H8.3c8.8,24.8,32.3,42.7,60.1,42.7c27.8,0,51.2-17.9,60.1-42.7h157.2
					c8.8,24.8,32.3,42.7,60.1,42.7s51.2-17.9,60.1-42.7h14.6c23.5,0,42.7-19.1,42.7-42.7V365C463,362.2,461.9,359.5,459.9,357.5z
					 M68.3,567.7c-23.5,0-42.7-19.1-42.7-42.7s19.1-42.7,42.7-42.7S111,501.5,111,525S91.9,567.7,68.3,567.7z M345.7,567.7
					c-23.5,0-42.7-19.1-42.7-42.7s19.1-42.7,42.7-42.7s42.7,19.1,42.7,42.7S369.2,567.7,345.7,567.7z M441.7,503.7
					c0,11.8-9.6,21.3-21.3,21.3h-10.7c0-35.3-28.7-64-64-64s-64,28.7-64,64H132.3c0-35.3-28.7-64-64-64s-64,28.7-64,64H-17
					c-5.9,0-10.7-4.8-10.7-10.7V247.7c0-11.8,9.6-21.3,21.3-21.3h234.7v32c0,5.9,4.8,10.7,10.7,10.7h102.3l100.4,100.4V503.7z"/>
				<path class="st0" d="M68.3,311.7H25.7c-5.9,0-10.7,4.8-10.7,10.7v85.3c0,5.9,4.8,10.7,10.7,10.7s10.7-4.8,10.7-10.7v-32h21.3
					c5.9,0,10.7-4.8,10.7-10.7s-4.8-10.7-10.7-10.7H36.3V333h32c5.9,0,10.7-4.8,10.7-10.7C79,316.4,74.2,311.7,68.3,311.7z"/>
				<path class="st0" d="M239,333c5.9,0,10.7-4.8,10.7-10.7s-4.8-10.7-10.7-10.7h-42.7c-5.9,0-10.7,4.8-10.7,10.7v85.3
					c0,5.9,4.8,10.7,10.7,10.7H239c5.9,0,10.7-4.8,10.7-10.7S244.9,397,239,397h-32v-21.3h21.3c5.9,0,10.7-4.8,10.7-10.7
					s-4.8-10.7-10.7-10.7H207V333H239z"/>
				<path class="st0" d="M324.3,333c5.9,0,10.7-4.8,10.7-10.7s-4.8-10.7-10.7-10.7h-42.7c-5.9,0-10.7,4.8-10.7,10.7v85.3
					c0,5.9,4.8,10.7,10.7,10.7h42.7c5.9,0,10.7-4.8,10.7-10.7s-4.8-10.7-10.7-10.7h-32v-21.3h21.3c5.9,0,10.7-4.8,10.7-10.7
					s-4.8-10.7-10.7-10.7h-21.3V333H324.3z"/>
				<path class="st0" d="M132.3,311.7H111c-5.9,0-10.7,4.8-10.7,10.7v85.3c0,5.9,4.8,10.7,10.7,10.7s10.7-4.8,10.7-10.7v-32h10.7
					c5.9,0,10.7,4.8,10.7,10.7v21.3c0,5.9,4.8,10.7,10.7,10.7s10.7-4.8,10.7-10.7v-21.3c0-8.2-3.1-15.7-8.2-21.3
					c5.1-5.7,8.2-13.1,8.2-21.3C164.3,326,150,311.7,132.3,311.7z M132.3,354.3h-10.7V333h10.7c5.9,0,10.7,4.8,10.7,10.7
					C143,349.6,138.2,354.3,132.3,354.3z"/>
			</g>
		</g>
	</g>
</g>
</svg>
