<?xml version="1.0" encoding="utf-8"?>
<!-- Generator: Adobe Illustrator 19.0.0, SVG Export Plug-In . SVG Version: 6.00 Build 0)  -->
<svg version="1.1" id="Capa_1" xmlns="http://www.w3.org/2000/svg" xmlns:xlink="http://www.w3.org/1999/xlink" x="0px" y="0px"
	 viewBox="-49 213.5 512 366.9" style="enable-background:new -49 213.5 512 366.9;" xml:space="preserve">
<style type="text/css">
	.st0{fill:#FFFFFF;}
</style>
<g>
	<g>
		<g>
			<path class="st0" d="M70.5,478.1c-28.2,0-51.2,23-51.2,51.2c0,28.2,23,51.2,51.2,51.2s51.2-23,51.2-51.2
				C121.7,501,98.7,478.1,70.5,478.1z M70.5,563.4c-18.8,0-34.1-15.3-34.1-34.1c0-18.8,15.3-34.1,34.1-34.1s34.1,15.3,34.1,34.1
				C104.6,548.1,89.3,563.4,70.5,563.4z"/>
		</g>
	</g>
	<g>
		<g>
			<path class="st0" d="M360.6,478.1c-28.2,0-51.2,23-51.2,51.2c0,28.2,23,51.2,51.2,51.2s51.2-23,51.2-51.2
				C411.8,501,388.8,478.1,360.6,478.1z M360.6,563.4c-18.8,0-34.1-15.3-34.1-34.1c0-18.8,15.3-34.1,34.1-34.1
				c18.8,0,34.1,15.3,34.1,34.1C394.7,548.1,379.4,563.4,360.6,563.4z"/>
		</g>
	</g>
	<g>
		<g>
			<path class="st0" d="M461.6,430.8l-76.8-119.5c-1.6-2.4-4.3-3.9-7.2-3.9h-93.9c-4.7,0-8.5,3.8-8.5,8.5v213.3
				c0,4.7,3.8,8.5,8.5,8.5h34.1v-17.1h-25.6V324.5H373l72.9,113.4v82.8h-42.7v17.1h51.2c4.7,0,8.5-3.8,8.5-8.5v-93.9
				C463,433.8,462.5,432.2,461.6,430.8z"/>
		</g>
	</g>
	<g>
		<g>
			<path class="st0" d="M326.5,418.3v-59.7h68.3v-17.1h-76.8c-4.7,0-8.5,3.8-8.5,8.5v76.8c0,4.7,3.8,8.5,8.5,8.5h128v-17.1
				L326.5,418.3L326.5,418.3z"/>
		</g>
	</g>
	<g>
		<g>
			<path class="st0" d="M283.8,247.7H-40.5c-4.7,0-8.5,3.8-8.5,8.5v273.1c0,4.7,3.8,8.5,8.5,8.5h68.3v-17.1h-59.7v-256h307.2v256
				H113.1v17.1h170.7c4.7,0,8.5-3.8,8.5-8.5V256.2C292.3,251.5,288.5,247.7,283.8,247.7z"/>
		</g>
	</g>
	<g>
		<g>
			<rect x="-40.5" y="486.6" class="st0" width="51.2" height="17.1"/>
		</g>
	</g>
	<g>
		<g>
			<rect x="130.2" y="486.6" class="st0" width="145.1" height="17.1"/>
		</g>
	</g>
	<g>
		<g>
			<rect x="420.3" y="486.6" class="st0" width="34.1" height="17.1"/>
		</g>
	</g>
	<g>
		<g>
			<rect x="-14.9" y="281.8" class="st0" width="298.7" height="17.1"/>
		</g>
	</g>
	<g>
		<g>
			<rect x="61.9" y="520.7" class="st0" width="17.1" height="17.1"/>
		</g>
	</g>
	<g>
		<g>
			<rect x="352.1" y="520.7" class="st0" width="17.1" height="17.1"/>
		</g>
	</g>
	<g>
		<g>
			<rect x="-14.9" y="213.5" class="st0" width="119.5" height="17.1"/>
		</g>
	</g>
	<g>
		<g>
			<rect x="-49" y="213.5" class="st0" width="17.1" height="17.1"/>
		</g>
	</g>
</g>
</svg>
